<svg width="201" height="54" viewBox="0 0 201 54" fill="none" xmlns="http://www.w3.org/2000/svg">
<path d="M3.09864 40L12.5 13.9462L21.9014 40H3.09864Z" stroke="black" stroke-width="2"/>
<path d="M119.099 40L128.5 13.9462L137.901 40H119.099Z" stroke="black" stroke-width="2"/>
<path d="M145.368 39.076H151.712V41H143.002V22.878H145.368V39.076ZM156.591 24.802V30.86H163.195V32.81H156.591V39.05H163.975V41H154.225V22.852H163.975V24.802H156.591ZM177.097 41L172.781 33.59H169.921V41H167.555V22.878H173.405C174.774 22.878 175.927 23.112 176.863 23.58C177.816 24.048 178.527 24.6807 178.995 25.478C179.463 26.2753 179.697 27.1853 179.697 28.208C179.697 29.456 179.333 30.5567 178.605 31.51C177.894 32.4633 176.819 33.096 175.381 33.408L179.931 41H177.097ZM169.921 31.692H173.405C174.687 31.692 175.649 31.38 176.291 30.756C176.932 30.1147 177.253 29.2653 177.253 28.208C177.253 27.1333 176.932 26.3013 176.291 25.712C175.667 25.1227 174.705 24.828 173.405 24.828H169.921V31.692ZM194.527 22.878V24.802H189.587V41H187.221V24.802H182.255V22.878H194.527Z" fill="black"/>
<path d="M28.368 39.076H34.712V41H26.002V22.878H28.368V39.076ZM39.5907 39.076H45.9347V41H37.2247V22.878H39.5907V39.076ZM50.8133 24.802V30.86H57.4173V32.81H50.8133V39.05H58.1973V41H48.4473V22.852H58.1973V24.802H50.8133ZM71.3194 41L67.0034 33.59H64.1434V41H61.7774V22.878H67.6274C68.9967 22.878 70.1494 23.112 71.0854 23.58C72.0387 24.048 72.7494 24.6807 73.2174 25.478C73.6854 26.2753 73.9194 27.1853 73.9194 28.208C73.9194 29.456 73.5554 30.5567 72.8274 31.51C72.1167 32.4633 71.0421 33.096 69.6034 33.408L74.1534 41H71.3194ZM64.1434 31.692H67.6274C68.9101 31.692 69.8721 31.38 70.5134 30.756C71.1547 30.1147 71.4754 29.2653 71.4754 28.208C71.4754 27.1333 71.1547 26.3013 70.5134 25.712C69.8894 25.1227 68.9274 24.828 67.6274 24.828H64.1434V31.692ZM91.3238 28.13C90.8211 27.0727 90.0931 26.258 89.1398 25.686C88.1864 25.0967 87.0771 24.802 85.8118 24.802C84.5464 24.802 83.4024 25.0967 82.3798 25.686C81.3744 26.258 80.5771 27.09 79.9878 28.182C79.4158 29.2567 79.1298 30.5047 79.1298 31.926C79.1298 33.3473 79.4158 34.5953 79.9878 35.67C80.5771 36.7447 81.3744 37.5767 82.3798 38.166C83.4024 38.738 84.5464 39.024 85.8118 39.024C87.5798 39.024 89.0358 38.4953 90.1798 37.438C91.3238 36.3807 91.9911 34.9507 92.1818 33.148H84.9538V31.224H94.7038V33.044C94.5651 34.5347 94.0971 35.904 93.2998 37.152C92.5024 38.3827 91.4538 39.362 90.1538 40.09C88.8538 40.8007 87.4064 41.156 85.8118 41.156C84.1304 41.156 82.5964 40.766 81.2098 39.986C79.8231 39.1887 78.7224 38.088 77.9078 36.684C77.1104 35.28 76.7118 33.694 76.7118 31.926C76.7118 30.158 77.1104 28.572 77.9078 27.168C78.7224 25.7467 79.8231 24.646 81.2098 23.866C82.5964 23.0687 84.1304 22.67 85.8118 22.67C87.7358 22.67 89.4344 23.1467 90.9078 24.1C92.3984 25.0533 93.4818 26.3967 94.1578 28.13H91.3238ZM110.52 22.878L104.618 34.162V41H102.252V34.162L96.3241 22.878H98.9501L103.422 32.056L107.894 22.878H110.52Z" fill="black"/>
</svg>
